<?xml version="1.0" encoding="UTF-8"?>
<svg width="59px" height="23px" viewBox="0 0 59 23" version="1.1" xmlns="http://www.w3.org/2000/svg" xmlns:xlink="http://www.w3.org/1999/xlink">
    <!-- Generator: sketchtool 61.2 (101010) - https://sketch.com -->
    <title>996270FF-5E81-4A7A-A1FD-B53BA12261C5</title>
    <desc>Created with sketchtool.</desc>
    <defs>
        <polygon id="path-1" points="0 0.0177529252 11.4712083 0.0177529252 11.4712083 19.2365994 0 19.2365994"></polygon>
        <polygon id="path-3" points="0.00106293145 0.0149436115 8.98287728 0.0149436115 8.98287728 11.0877471 0.00106293145 11.0877471"></polygon>
    </defs>
    <g id="Mobile-360-WS" stroke="none" stroke-width="1" fill="none" fill-rule="evenodd">
        <g id="Mobile-360-Website" transform="translate(-249.000000, -632.000000)">
            <g id="Group-17" transform="translate(249.867347, 631.870968)">
                <g id="Group-3" transform="translate(0.000000, 0.026852)">
                    <mask id="mask-2" fill="white">
                        <use xlink:href="#path-1"></use>
                    </mask>
                    <g id="Clip-2"></g>
                    <path d="M6.07037133,0.0177484647 C6.41943786,0.0664574956 6.77067791,0.103033874 7.1168754,0.168113065 C7.3491807,0.211781692 7.58435504,0.271642058 7.80057632,0.366651432 C8.27675002,0.575939686 8.47236639,0.998798306 8.52766061,1.49717377 C8.5569596,1.7614604 8.56361055,2.03020758 8.5557859,2.29618922 C8.5510911,2.45355686 8.60090807,2.51756552 8.74557724,2.55632756 C9.31082159,2.70776269 9.83711655,2.94898836 10.2954239,3.32679559 C11.2086046,4.07964451 11.530024,5.08540571 11.4625581,6.25045258 C11.3811382,7.65757263 10.4997778,8.21224003 9.38815526,8.38272164 C9.01874462,8.43937042 8.63824906,8.42897737 8.26275259,8.43138606 C7.98467306,8.43317028 7.92129336,8.35328211 7.90773062,8.07552466 C7.8827352,7.56425826 7.87108516,7.05143067 7.8234417,6.54226071 C7.73937014,5.64310628 7.30514528,5.31409729 6.35597122,5.42150695 C5.34333051,5.53618728 4.7569596,6.21351936 4.36811774,7.10723195 C4.03196188,7.87979643 3.86677473,8.70182824 3.81378443,9.54174678 C3.74610117,10.6144606 3.76570628,11.6871298 4.202322,12.6907053 C4.36177107,13.0573166 4.56960259,13.4241509 4.83416285,13.7154684 C5.37362931,14.3094777 6.06189462,14.3300854 6.7813716,14.1091105 C7.34583349,13.9357296 7.73184978,13.5739357 7.95746065,13.0147185 C8.262883,12.2579443 8.39572824,12.1615522 9.19801615,12.2590149 C10.1432779,12.373829 10.5987597,13.0399652 10.567635,13.922794 C10.5497252,14.4313841 10.2844694,14.8559377 9.97365677,15.2338788 C9.10824998,16.286208 7.98510776,16.8557735 6.66791411,17.0470412 C6.59627505,17.0574789 6.52489682,17.070236 6.45308387,17.0793355 C6.38926947,17.0874091 6.32506383,17.091825 6.24055756,17.0998094 C6.13592454,17.6531386 6.03185664,18.2039699 5.92752791,18.7547567 C5.9110092,18.8420047 5.90214126,18.9321967 5.87392903,19.0153857 C5.82793745,19.1511643 5.74317036,19.2535336 5.58624256,19.2342641 C5.02777958,19.1656165 4.46062254,19.1348834 3.91407042,19.0099884 C3.25649515,18.8597576 2.92985929,18.4154885 2.87126133,17.7265144 C2.85391667,17.5225342 2.86860964,17.3157884 2.86860964,17.0851342 C3.67159307,17.235811 4.46953395,17.2917461 5.26421456,17.0828593 C4.89050037,17.0293329 4.51226526,16.9978416 4.14385444,16.9185779 C1.95868926,16.4485268 0.727827629,14.9951956 0.217747094,12.8348698 C-0.0524643086,11.6903414 -0.0349892468,10.5265881 0.0758600256,9.35899871 C0.20422783,8.00687704 0.536036652,6.71845181 1.17752791,5.52744463 C2.16756406,3.68961542 3.68915507,2.64767929 5.72134827,2.39035109 C6.44269447,2.29908856 7.16343209,2.2827184 7.88486524,2.38718411 C7.92963965,2.39369649 7.9768484,2.38245594 8.02505697,2.36055472 C7.60691613,2.12753643 7.15652032,2.00928767 6.69182278,1.95723324 C6.22716871,1.90522341 5.75973254,1.8800214 5.26873547,1.84108094 C5.37480301,1.31585306 5.47543676,0.78723518 5.59319781,0.262676385 C5.61354191,0.172216756 5.70661183,0.0989301829 5.76607921,0.0177484647 L6.07037133,0.0177484647 Z" id="Fill-1" fill="#FEFEFE" mask="url(#mask-2)"></path>
                </g>
                <g id="Group-6" transform="translate(49.164913, 5.959363)">
                    <mask id="mask-4" fill="white">
                        <use xlink:href="#path-3"></use>
                    </mask>
                    <g id="Clip-5"></g>
                    <path d="M8.98288597,2.42643681 C8.95654297,2.54111714 8.92846115,2.65544062 8.90411778,2.770567 C8.64190491,4.00961413 7.4266926,4.98807686 6.16657546,4.91942925 C5.81337924,4.90015974 5.66762332,4.72401325 5.69792212,4.35976605 C5.72543882,4.02816995 5.73530658,3.69416517 5.73404594,3.36127552 C5.73308959,3.11826563 5.64827903,2.90282184 5.40328041,2.81258523 C5.14841402,2.71869099 4.90532809,2.74688157 4.69514917,2.94037953 C4.39720372,3.21474698 4.23479866,3.57738839 4.1519008,3.96054826 C3.9706731,4.7979243 3.79474879,5.63900259 3.67450993,6.48721773 C3.51545209,7.60913123 3.41090601,8.73925212 3.28492907,9.86611681 C3.26184634,10.0723719 3.24558845,10.2796083 3.23067814,10.4866663 C3.2015965,10.8905677 3.00041594,11.095886 2.60253226,11.0875002 C2.14826759,11.0779547 1.68074449,11.1108288 1.24343324,11.0115819 C0.384633934,10.8166566 -0.0999730027,9.97615819 0.0188313352,9.08204415 C0.120377963,8.3181331 0.179714926,7.54833415 0.258135353,6.78121152 C0.35385696,5.8445886 0.450404503,4.90805488 0.545778347,3.97143196 C0.624676947,3.19681563 0.70253226,2.4221547 0.780431042,1.64753837 C0.811555779,1.33770968 0.833812574,1.02667664 0.874457308,0.718141509 C0.923187517,0.347649557 1.16383911,0.108654147 1.60940972,0.0483477277 C2.50307221,-0.0726219536 3.29392743,0.117039951 3.86243205,0.913379081 C3.94802508,1.03332284 3.95337192,1.12311339 3.88890546,1.25072926 C3.55922669,1.90370683 3.34052759,2.59303775 3.34031024,3.33415547 C3.34017983,3.7120073 3.39430036,4.08990374 3.4239471,4.46780018 C3.44485632,4.46565912 3.46576553,4.46347346 3.48663128,4.46133241 C3.54075181,4.03111391 3.57744074,3.59768382 3.65225313,3.17125677 C3.84630457,2.06526737 4.28561545,1.09670703 5.26069781,0.492215463 C6.15944633,-0.0649944405 7.09653565,-0.17392068 8.02414844,0.427493115 C8.53070788,0.755877626 8.8322179,1.24386004 8.93072161,1.85691583 C8.93993731,1.9143229 8.96510662,1.96900905 8.98288597,2.02498875 L8.98288597,2.42643681 Z" id="Fill-4" fill="#FEFEFE" mask="url(#mask-4)"></path>
                </g>
                <path d="M34.904045,11.2770863 C34.904045,11.1805603 34.9108699,11.0834099 34.9029583,10.9875976 C34.8458383,10.2986236 34.7089938,9.63784007 34.2485129,9.09566216 C33.8712341,8.65148219 33.3310286,8.53854147 32.8176444,8.79662797 C32.4769241,8.96782326 32.2162762,9.23277898 32.0062277,9.55005676 C31.3212661,10.5847668 31.1103482,11.7366105 31.2417589,12.9614285 C31.2959229,13.466138 31.448069,13.9456007 31.7446669,14.3648017 C32.1992793,15.0072078 32.8729386,15.1312553 33.5059097,14.6790017 C33.6469708,14.5781937 33.7811636,14.4585176 33.8930997,14.325103 C34.6277478,13.4496786 34.8770065,12.4010963 34.904045,11.2770863 M30.2351171,13.8498777 C30.2351171,14.0799074 30.2190766,14.3059673 30.2378992,14.5289048 C30.3153198,15.4443402 30.4882012,16.3293547 30.9578544,17.1375589 C31.040448,17.2796269 30.9739384,17.5240641 30.9507687,17.7180081 C30.8145763,18.8586113 30.6707765,19.9982331 30.529585,21.1381226 C30.5004599,21.3735496 30.4736387,21.6091996 30.4419054,21.8441805 C30.4122586,22.0634157 30.2417681,22.2358154 30.009854,22.2372427 C29.5761073,22.2398299 29.1385787,22.2516949 28.7091356,22.2011124 C27.8384689,22.0985201 27.2147136,21.3206476 27.2863526,20.4289869 C27.3706415,19.3792448 27.4868376,18.3321791 27.5882973,17.2838644 C27.6804544,16.3314958 27.7696554,15.3789041 27.8635078,14.4267139 C27.9573167,13.4747468 28.0566464,12.5232257 28.1510204,11.5713031 C28.2307449,10.7668904 28.3058182,9.96207628 28.3848906,9.15757437 C28.4639631,8.35316168 28.5452526,7.54901661 28.6260204,6.74482694 C28.6415828,6.59000181 28.6532763,6.43446299 28.6775762,6.28102062 C28.7105701,6.07213382 28.8394161,5.98118353 29.0436831,5.98287853 C29.4710831,5.98635775 29.8986135,5.97663378 30.3258831,5.98609012 C31.177988,6.00500278 31.7930928,6.62983438 31.8331289,7.50534799 C31.8350851,7.54732161 31.842562,7.58893839 31.8463874,7.62163411 C32.1154251,7.36118353 32.3675529,7.08628082 32.6499359,6.84920344 C33.6851377,5.98002379 34.8508808,5.77385791 36.112476,6.20746642 C37.2836529,6.609985 37.880674,7.53831133 38.179315,8.7059007 C38.4361375,9.71023453 38.4347465,10.7299572 38.320637,11.7563261 C38.195486,12.8822095 37.8911938,13.9482771 37.3498147,14.9371328 C36.9070262,15.7458723 36.3373479,16.4429645 35.5507527,16.9215352 C33.648188,18.079133 31.6203853,17.386189 30.73959,15.2742154 C30.5481468,14.8151372 30.4053468,14.3347377 30.2351171,13.8498777" id="Fill-7" fill="#FEFEFE"></path>
                <path d="M15.0286531,9.454017 C15.1185932,9.12772894 15.1966658,8.79729259 15.3007337,8.4757773 C15.6580596,7.37170593 16.275251,6.51091208 17.4084783,6.13975105 C18.0568379,5.92742963 18.7262371,5.85717622 19.39894,5.86627571 C20.1714508,5.87680257 20.8638023,6.13332788 21.4009648,6.7324668 C21.8511867,7.23472293 22.0841006,7.84220305 22.1852995,8.50940972 C22.3037126,9.29022619 22.1987318,10.0644411 22.1227023,10.8393696 C22.0437602,11.6438715 21.9608188,12.4479274 21.8805292,13.2522955 C21.7870246,14.1894983 21.6948675,15.1268795 21.601276,16.0640823 C21.5813666,16.2632897 21.5591532,16.4622742 21.5361575,16.6611694 C21.5085103,16.9001648 21.3880107,17.0394673 21.1637474,17.0435263 C20.6787057,17.052492 20.1913167,17.0722522 19.708492,17.0363003 C18.8906418,16.9753694 18.318703,16.2925062 18.3673028,15.4476811 C18.4013835,14.8555452 18.471588,14.2655058 18.5299252,13.6749757 C18.6101279,12.8632031 18.6978944,12.0521888 18.7754889,11.2401932 C18.8262188,10.7088544 18.8903375,10.1768911 18.9015528,9.64421417 C18.9136375,9.07099095 18.4905411,8.60317015 17.952683,8.55495177 C17.1826066,8.48590271 16.562894,8.76883438 16.126713,9.43452447 C15.800903,9.9317848 15.645062,10.4948826 15.5802043,11.0810414 C15.4285799,12.4517635 15.2918658,13.8242252 15.1509785,15.1961962 C15.1018136,15.6756144 15.058126,16.1556571 15.011917,16.6353875 C14.9883561,16.8803154 14.8442956,17.0415637 14.6066434,17.0445523 C14.165246,17.0501279 13.7214142,17.0637326 13.282538,17.0258626 C12.4901613,16.9575719 11.8489743,16.2498635 11.8661886,15.4386262 C11.879534,14.8096017 11.9563025,14.1815585 12.0149005,13.5540952 C12.0900172,12.7492365 12.1752624,11.9454036 12.2560737,11.1410802 C12.3383195,10.3220815 12.4214347,9.50317209 12.5024634,8.68399502 C12.5813185,7.8868976 12.6571307,7.08944334 12.7358989,6.29230131 C12.8270561,5.36981828 12.9202565,4.44751367 13.0118049,3.52503064 C13.0374524,3.26672112 13.0629695,3.00836699 13.0842265,2.74961142 C13.114134,2.38393684 13.2173325,2.27741929 13.5729631,2.28277193 C14.0571353,2.29017642 14.5513927,2.24806898 15.0230454,2.33339899 C15.8598488,2.48474491 16.3701032,3.28875616 16.2633836,4.14905934 C16.1986128,4.67138787 16.1563597,5.19666035 16.0974574,5.71979178 C16.087155,5.81123272 16.0623769,5.91101487 16.0137771,5.98626408 C15.3778501,6.97092695 15.0709062,8.06117066 15.0093088,9.23219465 C15.0073527,9.26921708 15.002397,9.30606109 14.9998323,9.34303892 C14.9972675,9.37921385 14.9960069,9.41552259 14.9941812,9.45174213 C15.0057008,9.45250042 15.0171335,9.45325871 15.0286531,9.454017" id="Fill-9" fill="#FEFEFE"></path>
                <path d="M42.4379919,11.2324364 C42.8480038,11.1905519 43.2054601,11.1640118 43.5601343,11.115615 C44.3267766,11.0109708 44.8488549,10.5851683 45.0873765,9.82545013 C45.2483035,9.31284556 44.9801787,8.83110789 44.4734888,8.6824829 C44.0493491,8.55807861 43.6763304,8.69867464 43.3676913,8.97580762 C42.7222442,9.55527558 42.653083,10.3921164 42.4379919,11.2324364 M40.2932541,12.3186656 C40.9204002,12.7524079 41.6204894,12.9954624 42.3430528,13.1824034 C42.3757424,13.6653454 42.4886348,14.1023439 42.8523074,14.4280967 C43.2148932,14.7528236 43.6567688,14.8170999 44.111729,14.8054579 C44.6456747,14.791764 45.1222831,14.6068749 45.5643761,14.2906231 C46.2133008,13.8263261 47.0617541,14.0812902 47.3131864,14.7923439 C47.5109763,15.3516057 47.2994498,15.9865181 46.7836746,16.3588388 C46.3038494,16.7051547 45.7496465,16.8479364 45.1823156,16.9323297 C44.2407488,17.0724797 43.2935309,17.1129813 42.3484865,16.9790761 C40.5752894,16.7277696 39.4724913,15.7014453 39.2091917,13.8284671 C39.006707,12.3884283 39.0855187,10.9634216 39.655936,9.61317331 C40.3654148,7.93378227 41.5046845,6.66904247 43.2629713,6.16955188 C44.6674968,5.77055711 46.0705878,5.88581731 47.343746,6.68242407 C48.2961803,7.27839602 48.655245,8.39856991 48.3328258,9.59640171 C47.929291,11.0952303 46.9179544,11.9888091 45.5242095,12.4697885 C44.643023,12.7739523 43.7284948,12.8347048 42.8044031,12.803035 C41.9750332,12.7746214 41.1680505,12.6342484 40.3884975,12.3380243 C40.358503,12.3266053 40.3250744,12.3248657 40.2932541,12.3186656" id="Fill-11" fill="#FEFEFE"></path>
                <path d="M25.2292292,17.0697275 C24.9487153,17.0475587 24.6591162,17.0637058 24.3895134,16.9960841 C23.5697939,16.7904535 23.1097476,15.9944266 23.2216837,15.0971456 C23.3253603,14.2662819 23.390218,13.4303332 23.47229,12.5967041 C23.5522319,11.7851099 23.6328693,10.9736942 23.7121591,10.1621 C23.792101,9.34292294 23.8699563,8.52361206 23.9504633,7.70452421 C23.9910646,7.29130034 24.0304487,6.87785345 24.0798309,6.46570011 C24.1073476,6.23549195 24.3013991,6.00421327 24.5107955,5.99712102 C24.9367175,5.98257968 25.3733767,5.94466514 25.7883008,6.01871 C26.7258248,6.18602463 27.2578144,7.0662218 27.1311854,8.087015 C27.026335,8.93264303 26.9615208,9.78348988 26.8774492,10.6318834 C26.7824231,11.5909429 26.6843107,12.54969 26.5902409,13.5088386 C26.5106468,14.3205666 26.4355301,15.1327852 26.3568489,15.944647 C26.3347225,16.1732494 26.3186385,16.4034576 26.2788631,16.6290268 C26.2312197,16.8990675 26.0630331,17.0377901 25.7954299,17.0474695 C25.6074208,17.0542495 25.4189336,17.048763 25.2306637,17.048763 C25.2301855,17.055766 25.2297074,17.0627691 25.2292292,17.0697275" id="Fill-13" fill="#FEFEFE"></path>
                <path d="M25.9807047,2.22612315 C26.1383715,2.24271634 26.2968642,2.25351083 26.4536616,2.27683942 C27.4493489,2.42497375 27.5287691,3.40655886 27.2088277,4.00815108 C26.9202718,4.55068582 26.4181463,4.747663 25.8548147,4.79556914 C25.5979487,4.81742575 25.3343882,4.79766559 25.0775222,4.7659958 C24.6815947,4.71724216 24.3394399,4.54609147 24.2189837,4.12555233 C24.081661,3.64622335 24.1357381,3.18130189 24.4772843,2.79212031 C24.7957912,2.42925587 25.2191919,2.29436932 25.6760213,2.24673082 C25.7762638,2.23629317 25.8783756,2.24521423 25.9796614,2.24521423 C25.9799657,2.23883567 25.9803569,2.23250171 25.9807047,2.22612315" id="Fill-15" fill="#FEFEFE"></path>
            </g>
        </g>
    </g>
</svg>