<?xml version="1.0" encoding="UTF-8"?>
<svg width="65px" height="16px" viewBox="0 0 65 16" version="1.1" xmlns="http://www.w3.org/2000/svg" xmlns:xlink="http://www.w3.org/1999/xlink">
    <!-- Generator: sketchtool 61.2 (101010) - https://sketch.com -->
    <title>E594D236-9EC2-461A-A03E-A8E2612254B1</title>
    <desc>Created with sketchtool.</desc>
    <g id="Mobile-360-WS" stroke="none" stroke-width="1" fill="none" fill-rule="evenodd">
        <g id="Mobile-360-Website" transform="translate(-87.000000, -633.000000)" fill="#FFFFFF">
            <g id="Group-23" transform="translate(87.000000, 633.000000)">
                <path d="M4.5161,9.572 C5.6241,9.579 6.4671,8.789 6.4881,7.725 C6.5081,6.677 5.6481,5.823 4.5641,5.816 C3.4281,5.808 2.5871,6.608 2.58809911,7.696 C2.58809911,8.787 3.3881,9.566 4.5161,9.572 L4.5161,9.572 Z M0.0001,6.883 C0.1371,6.798 0.1171,6.643 0.1551,6.518 C0.7061,4.689 2.5071,3.504 4.4121,3.704 C5.0801,3.774 5.7151,3.918 6.2751,4.308 C6.3971,4.392 6.4881,4.41 6.4881,4.216 C6.4891,3.963 6.6601,3.94 6.8531,3.94 C7.5161,3.941 8.1781,3.945 8.8401,3.937 C9.0331,3.935 9.1051,3.99 9.1051,4.196 C9.0941,6.704 9.1311,9.214 9.0751,11.721 C9.0341,13.612 7.6151,15.006 5.5821,15.298 C4.5521,15.446 4.5521,15.446 4.5521,14.417 C4.5521,14.124 4.5691,13.83 4.5471,13.539 C4.5271,13.277 4.6281,13.196 4.8791,13.157 C5.8471,13.007 6.4611,12.29 6.4851,11.317 C6.4871,11.246 6.4881,11.147 6.4461,11.107 C6.3781,11.045 6.3081,11.13 6.2481,11.17 C4.3451,12.42 0.9161,11.852 0.0941,8.678 C0.0761,8.61 0.0981,8.519 0.0001,8.489 L0.0001,6.883 Z" id="Fill-1"></path>
                <path d="M2.0649,15.8308 C1.9989,15.7128 1.8659,15.7318 1.7649,15.6928 C1.0989,15.4388 0.6769,14.7478 0.7959,14.0918 C0.9399,13.3038 1.5049,12.8218 2.2809,12.8268 C3.0119,12.8308 3.6199,13.3378 3.7359,14.0398 C3.8569,14.7678 3.4489,15.4428 2.7479,15.6998 C2.6479,15.7358 2.5119,15.7088 2.4469,15.8308 L2.0649,15.8308 Z" id="Fill-3"></path>
                <path d="M60.1621,8.6413 C60.7771,7.2273 61.4001,5.8223 61.9971,4.4073 C62.1471,4.0493 62.3561,3.8943 62.7451,3.9073 C63.3941,3.9283 64.0451,3.9263 64.6941,3.9073 C65.0181,3.8973 65.0601,3.9783 64.9331,4.2703 C63.8201,6.8333 62.7181,9.4013 61.6121,11.9683 C61.2361,12.8423 60.8501,13.7133 60.4861,14.5933 C60.3521,14.9173 60.1581,15.0703 59.7951,15.0593 C59.1211,15.0383 58.4441,15.0373 57.7691,15.0593 C57.4281,15.0713 57.4241,14.9713 57.5481,14.6993 C57.9051,13.9123 58.2331,13.1133 58.5871,12.3253 C58.6991,12.0753 58.7021,11.8553 58.5921,11.5993 C57.6801,9.4903 56.7791,7.3753 55.8761,5.2633 C55.8411,5.1823 55.8041,5.1003 55.7641,5.0213 C55.7261,4.9513 55.6731,4.8873 55.5851,4.9113 C55.5051,4.9333 55.4681,5.0083 55.4651,5.0853 C55.4581,5.2893 55.4421,5.4953 55.4641,5.6973 C55.4931,5.9743 55.4131,6.0753 55.1141,6.0613 C54.5291,6.0363 53.9421,6.0653 53.3561,6.0493 C53.0971,6.0413 53.0001,6.1103 53.0061,6.3873 C53.0231,7.2153 53.0051,8.0433 53.0141,8.8713 C53.0241,9.8403 53.5551,10.2643 54.5021,10.0763 C54.6271,10.0503 54.7491,10.0133 54.8701,9.9743 C55.3441,9.8183 55.3451,9.8163 55.4821,10.2823 C55.6161,10.7333 55.7461,11.1853 55.8831,11.6343 C55.9281,11.7833 55.9361,11.9023 55.7681,11.9833 C54.5001,12.5973 53.1981,12.7303 51.9051,12.1183 C50.7211,11.5563 50.3851,10.4763 50.3651,9.2633 C50.3501,8.3083 50.3541,7.3513 50.3671,6.3963 C50.3711,6.1373 50.3071,6.0273 50.0291,6.0483 C49.7241,6.0723 49.4171,6.0433 49.1121,6.0583 C48.9061,6.0673 48.8491,5.9883 48.8531,5.7923 C48.8641,5.2573 48.8661,4.7223 48.8519737,4.1863 C48.8481,3.9723 48.9391,3.9313 49.1251,3.9373 C49.4421,3.9473 49.7621,3.9293 50.0801,3.9433 C50.2951,3.9533 50.3721,3.8823 50.3661,3.6623 C50.3531,3.1403 50.3581,2.6183 50.3631,2.0953 C50.3681,1.6383 50.5031,1.4993 50.9581,1.4943 C51.5581,1.4873 52.1561,1.4993 52.7551,1.48919856 C52.9531,1.4863 53.0191,1.5493 53.0161,1.7503 C53.0051,2.3743 53.0251,2.9993 53.0061,3.6223 C52.9971,3.8853 53.0911,3.9453 53.3321,3.9443 C54.6571,3.9353 55.9821,3.9393 57.3081,3.9403 C58.0041,3.9403 58.2401,4.0983 58.4961,4.7283 C58.9971,5.9643 59.4981,7.2013 60.0031,8.4353 C60.0291,8.5003 60.0211,8.5933 60.1621,8.6413" id="Fill-5"></path>
                <path d="M31.9526,5.95577168 C30.8226,5.9498 29.9106,6.8978 29.9045703,8.0828 C29.8986,9.2688 30.8026,10.2288 31.9286,10.2348299 C33.0876,10.2408 33.9206,9.3428 33.9196009,8.0878 C33.9176,6.8558 33.0936,5.9618 31.9526,5.95577168 M29.9296,11.6558 C29.8766,12.2478 29.8766,12.2488 29.3436,12.2488 C28.7576,12.2488 28.1716,12.2378 27.5856,12.2538 C27.3286,12.2608 27.2326,12.1948 27.2335923,11.9178 C27.2416,8.2628 27.2376,4.6068 27.2406,0.9518 C27.2406,0.5088 27.4006,0.3498 27.8326,0.3468 C28.4186,0.3418 29.0056,0.3578 29.5906,0.3398 C29.8426,0.3318 29.9106,0.4078 29.9086,0.6588 C29.8956,1.9318 29.9026,3.2038 29.9026,4.4668 C29.9866,4.5168 30.0346,4.4728 30.0866,4.4358 C32.6576,2.6668 36.0746,4.1918 36.4766,7.2898 C36.6766,8.8338 36.3726,10.2358 35.2446,11.3688 C33.9236,12.6958 31.7456,12.8788 30.1866,11.8278 C30.1166,11.7798 30.0446,11.7328 29.9296,11.6558" id="Fill-7"></path>
                <path d="M19.2597991,8.0842 C19.2588,9.3412 20.0918,10.2452 21.2458,10.2352 C22.3888,10.2262 23.2648,9.2922 23.2618077,8.0862 C23.2588,6.8862 22.3688,5.9532 21.2288,5.95519679 C20.0888,5.9572 19.2608,6.8522 19.2597991,8.0842 M23.2298,4.4872 C23.3038,3.9402 23.3038,3.9402 23.8898,3.9402 C24.4758,3.9392 25.0628,3.9472 25.6478,3.9362 C25.8628,3.9322 25.9308107,3.9962 25.9308107,4.2172 C25.9238,6.8042 25.9238,9.3902 25.9308107,11.9772 C25.9318,12.1992 25.8628,12.2572 25.6498,12.2532 C25.0638,12.2412 24.4768,12.2492 23.8908,12.2492 C23.3168,12.2492 23.3168,12.2492 23.2148,11.6752 C22.7268,12.0202 22.2178,12.2842 21.6348,12.4022 C19.1248,12.9102 16.8738,11.2202 16.6738,8.6622 C16.5468,7.0362 16.9408,5.5962 18.2598,4.5332 C19.6158,3.4412 21.5878,3.3972 23.0328,4.3932 C23.0928,4.4332 23.1408,4.5042 23.2298,4.4872" id="Fill-9"></path>
                <path d="M13.0903,5.3201 C13.6413,4.6841 14.2143,4.1661 15.0143,3.9441 C15.4133,3.8321 15.8153,3.8121 16.2243,3.8281 C16.4343,3.8371 16.5523,3.8931 16.5263,4.1451 C16.4533,4.8411 16.4033,5.5401 16.3453,6.2371 C16.3253,6.4721 16.1963,6.5671 15.9663,6.5671 C15.7243,6.5671 15.4793,6.5641 15.2423,6.6041 C14.0363,6.8111 13.3233,7.5711 13.1553,8.8041 C13.0293,9.7301 13.1123,10.6621 13.0913,11.5911 C13.0803,12.1111 12.9573,12.2451 12.4383,12.2481 C11.8653,12.2521 11.2913,12.2401 10.7183,12.2541 C10.4883,12.2581 10.4083,12.1901 10.4092908,11.9521 C10.4163,9.4931 10.4113,7.0331 10.4153,4.5741 C10.4163,4.1081 10.5793,3.9461 11.0293,3.9421 C11.6153,3.9351 12.2023,3.9541 12.7873,3.9341 C13.0563,3.9241 13.1053,4.0331 13.0943,4.2671 C13.0783,4.6171 13.0903,4.9691 13.0903,5.3201" id="Fill-11"></path>
                <path d="M44.2168,6.1633 C44.2168,7.9733 44.2178,9.7833 44.2168,11.5933 C44.2158,12.1133 44.0828,12.2453 43.5608,12.2473 C42.9998,12.2513 42.4388,12.2413 41.8778,12.2523 C41.6628,12.2573 41.5618,12.2253 41.5618,11.9683 C41.5708,8.2723 41.5668,4.5753 41.5698,0.8793 C41.5698,0.4833 41.7048,0.3513 42.1018,0.3473 C42.6888,0.3403 43.2758,0.3603 43.8608,0.3393 C44.1418,0.3293 44.2268,0.4013 44.2248,0.6953 C44.2098,2.5173 44.2168,4.3403 44.2168,6.1633" id="Fill-13"></path>
                <path d="M48.334,7.9524 C48.334,9.1624 48.335,10.3714 48.334,11.5814 C48.333,12.0994 48.193,12.2444 47.686,12.2474 C47.113,12.2514 46.54,12.2414 45.967,12.2524 C45.75,12.2564 45.651,12.2144 45.6519925,11.9634 C45.661,9.4934 45.656,7.0224 45.659,4.5514 C45.66,4.1064 45.819,3.9464 46.252,3.9414 C46.851,3.9354 47.449,3.9504 48.047,3.9344 C48.292,3.9284 48.341,4.0224 48.339,4.2464 C48.329,5.4814 48.334,6.7174 48.334,7.9524" id="Fill-15"></path>
                <path d="M37.4375,8.219 C37.4375,7.023 37.4365,5.827 37.4385,4.631 C37.4395,4.061 37.5615,3.942 38.1395,3.94 C38.6865,3.939 39.2335,3.948 39.7805,3.936 C40.0105,3.931 40.1185,3.973 40.1175069,4.243 C40.1075,6.699 40.1135,9.155 40.1095,11.611 C40.1085,12.103 39.9575,12.245 39.4655,12.248 C38.9055,12.252 38.3445,12.23 37.7865,12.257 C37.4835,12.27 37.4285,12.157 37.4315,11.885 C37.4455,10.663 37.4375,9.441 37.4375,8.219" id="Fill-17"></path>
                <path d="M47.0156,0.0002 C47.8256,0.0072 48.4936,0.6852 48.4876,1.4942 C48.4806,2.3242 47.7976,2.9852 46.9636,2.9692 C46.1456,2.9542 45.5086,2.2892 45.5176,1.4592 C45.5256,0.6452 46.1956,-0.0068 47.0156,0.0002" id="Fill-19"></path>
                <path d="M40.2588011,1.4885 C40.2598,2.3035 39.5988,2.9665 38.7808,2.96950998 C37.9458,2.9725 37.2788,2.2985 37.2898,1.4645 C37.3008,0.6485 37.9718,-0.0085 38.7858,0.0005 C39.6038,0.0085 40.2568,0.6695 40.2588011,1.4885" id="Fill-21"></path>
            </g>
        </g>
    </g>
</svg>