<?xml version="1.0" encoding="UTF-8"?>
<svg width="185px" height="32px" viewBox="0 0 185 32" version="1.1" xmlns="http://www.w3.org/2000/svg" xmlns:xlink="http://www.w3.org/1999/xlink">
    <!-- Generator: sketchtool 57.1 (101010) - https://sketch.com -->
    <title>5E56D994-33DE-474F-84CD-7C1856CF8A82</title>
    <desc>Created with sketchtool.</desc>
    <g id="Large-WS" stroke="none" stroke-width="1" fill="none" fill-rule="evenodd">
        <g id="Home" transform="translate(-74.000000, -76.000000)" fill="#FFFFFF">
            <g id="Group-27" transform="translate(74.000000, 76.000000)">
                <path d="M27.5687849,14.8244941 L29.5686768,16.8438221 C30.0228105,17.3023693 30.0228105,18.0457933 29.5686768,18.5043405 L16.335923,31.8656973 C16.1279728,32.0756173 15.7719575,31.9368141 15.7578102,31.6402125 L15.5009782,26.2488525 C15.4749147,25.7020877 15.6786562,25.1697101 16.061952,24.7826893 L25.9242489,14.8244941 C26.3783826,14.3659981 27.1146512,14.3659981 27.5687849,14.8244941 Z M94.1280906,9.06066432 C95.0108016,9.06066432 95.8305849,9.22445312 96.588404,9.55100672 C97.3458682,9.87786752 97.967437,10.3605299 98.4527556,10.9989939 L98.4527556,9.71423232 C98.4527556,9.41486592 98.6931585,9.17207552 98.9896942,9.17207552 L99.9239237,9.17207552 C100.22051,9.17207552 100.460913,9.41486592 100.460913,9.71423232 L100.460913,19.3759795 C100.460913,21.4404147 99.953131,22.9662771 98.9383278,23.9542835 C97.9231696,24.9419315 96.4081906,25.4358067 94.3930358,25.4358067 C93.2896978,25.4358067 92.2378783,25.2835379 91.2378816,24.9793075 C90.4331076,24.7341619 89.7525156,24.4053555 89.1953956,23.9923763 C88.9699007,23.8253107 88.9134636,23.5087411 89.0611229,23.2688691 L89.513279,22.5345075 C89.6769619,22.2685747 90.0244583,22.2036019 90.2803776,22.3804467 C90.7315702,22.6922035 91.2528403,22.9493811 91.8445426,23.1523891 C92.6460206,23.4269235 93.4733593,23.5644979 94.32666,23.5644979 C95.6946389,23.5644979 96.705994,23.2376371 97.3607254,22.5841715 C98.0152032,21.9304499 98.342721,20.9353779 98.342721,19.5988531 L98.342721,18.6631731 C97.8422917,19.2722483 97.2282782,19.7290547 96.5002242,20.0332851 C95.7720688,20.3378227 94.9810872,20.4900915 94.1280906,20.4900915 C93.0102504,20.4900915 91.9988446,20.2487347 91.0943295,19.7658163 C90.189561,19.2834611 89.4798123,18.6073651 88.9650835,17.7383987 C88.4501012,16.8694835 88.1927621,15.8783027 88.1927621,14.7641907 C88.1927621,13.6501299 88.4501012,12.6589491 88.9650835,11.7899827 C89.4798123,10.9210675 90.189561,10.2491187 91.0943295,9.77377792 C91.9988446,9.29848832 93.0102504,9.06066432 94.1280906,9.06066432 Z M180.046802,9.0606336 C180.826425,9.0606336 181.606049,9.1577088 182.385672,9.350528 C182.935794,9.4867712 183.416296,9.6562944 183.827277,9.8589952 C184.098206,9.992576 184.197187,10.332544 184.05404,10.6004224 L183.662276,11.3340672 C183.522882,11.5950336 183.203376,11.6913408 182.942589,11.5550976 C182.090454,11.110016 181.117789,10.8876032 180.024947,10.8876032 C179.12743,10.8876032 178.443593,11.0363392 177.972878,11.3331968 C177.501808,11.6304128 177.266881,12.0239872 177.266881,12.5139712 C177.266881,12.9005824 177.399024,13.2048128 177.663969,13.4276352 C177.92861,13.6501504 178.255824,13.813888 178.645914,13.9176192 C179.035447,14.0217088 179.583643,14.1404416 180.289588,14.274176 C181.230765,14.4376576 181.992032,14.6122496 182.573441,14.7977472 C183.15419,14.9835008 183.650563,15.2988928 184.062812,15.7445376 C184.474504,16.1901824 184.680578,16.813952 184.680578,17.6157952 C184.680578,18.6852096 184.228169,19.5359488 183.323654,20.16704 C182.418834,20.7984384 181.186852,21.1138304 179.627606,21.1138304 C178.671217,21.1138304 177.752149,20.9835776 176.869489,20.7237376 C176.206492,20.5287168 175.651147,20.2935552 175.20391,20.0186112 C174.964572,19.8714112 174.88699,19.5570944 175.017561,19.3066752 L175.408209,18.5572096 C175.550392,18.2843136 175.885161,18.1908736 176.151323,18.3420672 C176.562812,18.5758464 177.030231,18.77184 177.553631,18.9304064 C178.288986,19.1531776 179.031948,19.2645888 179.782161,19.2645888 C181.635459,19.2645888 182.562437,18.7299072 182.562437,17.6604928 C182.562437,17.303936 182.437241,17.0220288 182.187102,16.813952 C181.937065,16.60608 181.624709,16.4538624 181.249425,16.3571456 C180.874445,16.260736 180.341157,16.1531136 179.649714,16.0340736 C178.708233,15.885952 177.939614,15.7148416 177.344007,15.5217152 C176.7484,15.328896 176.236866,15.0020352 175.810368,14.5413888 C175.383565,14.081408 175.170494,13.435264 175.170494,12.6031104 C175.170494,11.533696 175.611849,10.6759424 176.494509,10.0298496 C177.377271,9.3837568 178.560878,9.0606336 180.046802,9.0606336 Z M80.2722011,9.06062848 C81.8903185,9.06062848 83.1296025,9.46193408 83.9901544,10.2637773 C84.8507063,11.0660301 85.2810076,12.2614989 85.2810076,13.8509005 L85.2810076,20.4378829 C85.2810076,20.7373517 85.0406048,20.9800909 84.7440184,20.9800909 L83.8100931,20.9800909 C83.5135067,20.9800909 83.2731039,20.7373517 83.2731039,20.4378829 L83.2731039,19.4206925 C82.9199789,19.9700685 82.4160508,20.3898573 81.761573,20.6793933 C81.1068416,20.9689293 80.3307172,21.1138253 79.4338082,21.1138253 C78.1242948,21.1138253 77.0762783,20.7946445 76.2893533,20.1558221 C75.502479,19.5174605 75.1091939,18.6781901 75.1091939,17.6381133 C75.1091939,16.5988045 75.4841737,15.7633741 76.2343867,15.1319245 C76.984549,14.5008333 78.1761175,14.1847757 79.808788,14.1847757 L83.162765,14.1847757 L83.162765,13.7615565 C83.162765,12.8408781 82.8978706,12.1353933 82.3682846,11.6451021 C81.8387493,11.1550669 81.0588219,10.9099213 80.029415,10.9099213 C79.3380223,10.9099213 78.6614868,11.0251213 77.9994536,11.2552653 C77.5519626,11.4111693 77.1513757,11.6025037 76.7978451,11.8294221 C76.5318351,12.0001229 76.1809413,11.9224013 76.0278055,11.6441293 L75.6706747,10.9950669 C75.5348809,10.7483341 75.6076457,10.4360653 75.8400368,10.2790861 C76.354512,9.93159168 76.941955,9.65541888 77.6023655,9.45072128 C78.4407584,9.19088128 79.3307205,9.06062848 80.2722011,9.06062848 Z M167.271838,9.06062848 C168.433692,9.06062848 169.474457,9.31698688 170.39383,9.82934528 C171.313202,10.3417037 172.034005,11.0548173 172.556238,11.9681229 C173.078218,12.8817357 173.339715,13.9176653 173.339715,15.0760653 C173.339715,16.2345165 173.078218,17.2707533 172.556238,18.1840589 C172.034005,19.0976205 171.313202,19.8142669 170.39383,20.3339981 C169.474457,20.8539853 168.433692,21.1138253 167.271838,21.1138253 C166.10968,21.1138253 165.065416,20.8539853 164.138488,20.3339981 C163.211814,19.8142669 162.487208,19.0976205 161.965228,18.1840589 C161.442944,17.2707533 161.181852,16.2345165 161.181852,15.0760653 C161.181852,13.9176653 161.442944,12.8817357 161.965228,11.9681229 C162.487208,11.0548173 163.211814,10.3417037 164.138488,9.82934528 C165.065416,9.31698688 166.10968,9.06062848 167.271838,9.06062848 Z M129.938966,9.06062848 C131.557083,9.06062848 132.796367,9.46193408 133.656919,10.2637773 C134.517471,11.0660301 134.947772,12.2614989 134.947772,13.8509005 L134.947772,20.4378829 C134.947772,20.7373517 134.70737,20.9800909 134.410783,20.9800909 L133.476858,20.9800909 C133.180272,20.9800909 132.939869,20.7373517 132.939869,20.4378829 L132.939869,19.4206925 C132.586744,19.9700685 132.082816,20.3898573 131.428338,20.6793933 C130.773606,20.9689293 129.997482,21.1138253 129.100573,21.1138253 C127.79106,21.1138253 126.743043,20.7946445 125.956118,20.1558221 C125.169244,19.5174605 124.775959,18.6781901 124.775959,17.6381133 C124.775959,16.5988045 125.150938,15.7633741 125.901151,15.1319245 C126.651365,14.5008333 127.842933,14.1847757 129.475553,14.1847757 L132.82953,14.1847757 L132.82953,13.7615565 C132.82953,12.8408781 132.564635,12.1353933 132.035049,11.6451021 C131.505514,11.1550669 130.725587,10.9099213 129.69618,10.9099213 C129.004787,10.9099213 128.328252,11.0251213 127.666218,11.2552653 C127.218727,11.4111693 126.81814,11.6025037 126.46461,11.8294221 C126.1986,12.0001229 125.847706,11.9224013 125.694621,11.6441293 L125.33744,10.9950669 C125.201696,10.7483341 125.27441,10.4360653 125.506802,10.2790861 C126.021277,9.93159168 126.60872,9.65541888 127.26913,9.45072128 C128.107523,9.19088128 128.997536,9.06062848 129.938966,9.06062848 Z M153.50351,9.06065408 C154.974221,9.06065408 156.140183,9.49160448 157.000785,10.3528909 C157.861337,11.2144333 158.291588,12.4916173 158.291588,14.1848013 L158.291588,20.4379085 C158.291588,20.7373261 158.051185,20.9800653 157.754649,20.9800653 L156.710334,20.9800653 C156.413799,20.9800653 156.173447,20.7373261 156.173447,20.4379085 L156.173447,14.4299981 C156.173447,13.2865485 155.911949,12.4249549 155.38997,11.8455245 C154.867736,11.2665037 154.121275,10.9766605 153.150385,10.9766605 C152.076761,10.9766605 151.22341,11.3146829 150.591192,11.9904717 C149.958214,12.6665677 149.642055,13.6357325 149.642055,14.8979661 L149.642055,20.4379085 C149.642055,20.7373261 149.401703,20.9800653 149.105116,20.9800653 L148.060802,20.9800653 C147.764317,20.9800653 147.523863,20.7373261 147.523863,20.4379085 L147.523863,14.4299981 C147.523863,13.2865485 147.262721,12.4249549 146.740741,11.8455245 C146.218457,11.2665037 145.472098,10.9766605 144.501156,10.9766605 C143.427178,10.9766605 142.573877,11.3146829 141.941659,11.9904717 C141.308986,12.6665677 140.992877,13.6357325 140.992877,14.8979661 L140.992877,20.4379085 C140.992877,20.7373261 140.752423,20.9800653 140.455888,20.9800653 L139.411624,20.9800653 C139.115037,20.9800653 138.874634,20.7373261 138.874634,20.4379085 L138.874634,9.71422208 C138.874634,9.41485568 139.115037,9.17211648 139.411624,9.17211648 L140.367708,9.17211648 C140.664244,9.17211648 140.904646,9.41485568 140.904646,9.71422208 L140.904646,10.9322189 C141.331145,10.3235021 141.89009,9.85932288 142.581534,9.53983488 C143.272876,9.22060288 144.059801,9.06065408 144.942512,9.06065408 C145.854278,9.06065408 146.663666,9.24676608 147.369612,9.61771008 C148.075557,9.98926848 148.619646,10.5313229 149.002536,11.2441293 C149.443536,10.5609677 150.057803,10.0262861 150.844728,9.64003328 C151.631603,9.25408768 152.517762,9.06065408 153.50351,9.06065408 Z M116.898458,9.06063872 C118.384027,9.06063872 119.564541,9.49512192 120.43995,10.3640371 C121.314751,11.2330035 121.752658,12.5066547 121.752658,14.1847859 L121.752658,20.4378931 C121.752658,20.7373619 121.512205,20.9801011 121.215669,20.9801011 L120.171405,20.9801011 C119.874819,20.9801011 119.634416,20.7373619 119.634416,20.4378931 L119.634416,14.4299827 C119.634416,13.2865331 119.36222,12.4249395 118.818131,11.8455603 C118.273688,11.2664883 117.49442,10.9766451 116.479262,10.9766451 C115.331961,10.9766451 114.427141,11.3146675 113.765412,11.9905075 C113.103379,12.6666035 112.772413,13.6357171 112.772413,14.8979507 L112.772413,20.4378931 C112.772413,20.7373619 112.53201,20.9801011 112.235424,20.9801011 L111.19116,20.9801011 C110.894624,20.9801011 110.654221,20.7373619 110.654221,20.4378931 L110.654221,9.71425792 C110.654221,9.41484032 110.894624,9.17210112 111.19116,9.17210112 L112.147244,9.17210112 C112.443831,9.17210112 112.684183,9.41484032 112.684183,9.71425792 L112.684183,10.9545779 C113.110681,10.3455539 113.687983,9.87789312 114.416391,9.55098112 C115.144445,9.22442752 115.971835,9.06063872 116.898458,9.06063872 Z M106.079727,9.17209088 C106.376212,9.17209088 106.616666,9.41483008 106.616666,9.71424768 L106.616666,20.4378829 C106.616666,20.7373517 106.376212,20.9800909 106.079727,20.9800909 L105.035412,20.9800909 C104.738826,20.9800909 104.498423,20.7373517 104.498423,20.4378829 L104.498423,9.71424768 C104.498423,9.41483008 104.738826,9.17209088 105.035412,9.17209088 L106.079727,9.17209088 Z M47.8297849,2.44289024 C48.1263206,2.44289024 48.3667234,2.68562944 48.3667234,2.98504704 L48.3667234,20.4378982 C48.3667234,20.7373158 48.1263206,20.9801062 47.8297849,20.9801062 L46.6972903,20.9801062 C46.4007546,20.9801062 46.1603517,20.7373158 46.1603517,20.4378982 L46.1603517,2.98504704 C46.1603517,2.68562944 46.4007546,2.44289024 46.6972903,2.44289024 L47.8297849,2.44289024 Z M67.3202332,9.06065408 C68.7909449,9.06065408 69.9569063,9.49160448 70.8174582,10.3528909 C71.6780608,11.2144333 72.1083114,12.4916173 72.1083114,14.1848013 L72.1083114,20.4379085 C72.1083114,20.7373261 71.8679085,20.9800653 71.5713221,20.9800653 L70.527058,20.9800653 C70.2305223,20.9800653 69.9901195,20.7373261 69.9901195,20.4379085 L69.9901195,14.4299981 C69.9901195,13.2865485 69.7286224,12.4249549 69.2066425,11.8455245 C68.6844091,11.2665037 67.9379991,10.9766605 66.9670576,10.9766605 C65.8934847,10.9766605 65.0401333,11.3146829 64.4078652,11.9904717 C63.7748872,12.6665677 63.4587785,13.6357325 63.4587785,14.8979661 L63.4587785,20.4379085 C63.4587785,20.7373261 63.2183757,20.9800653 62.9217893,20.9800653 L61.8775252,20.9800653 C61.5809895,20.9800653 61.3405359,20.7373261 61.3405359,20.4379085 L61.3405359,14.4299981 C61.3405359,13.2865485 61.0794445,12.4249549 60.5574646,11.8455245 C60.0351805,11.2665037 59.2887705,10.9766605 58.3178797,10.9766605 C57.2439012,10.9766605 56.3906004,11.3146829 55.7583323,11.9904717 C55.1257093,12.6665677 54.8095499,13.6357325 54.8095499,14.8979661 L54.8095499,20.4379085 C54.8095499,20.7373261 54.5691471,20.9800653 54.2726114,20.9800653 L53.2283473,20.9800653 C52.9317609,20.9800653 52.691358,20.7373261 52.691358,20.4379085 L52.691358,9.71422208 C52.691358,9.41485568 52.9317609,9.17211648 53.2283473,9.17211648 L54.1843808,9.17211648 C54.4809673,9.17211648 54.7213194,9.41485568 54.7213194,9.71422208 L54.7213194,10.9322189 C55.1478684,10.3235021 55.7067631,9.85932288 56.3982065,9.53983488 C57.0895992,9.22060288 57.8765242,9.06065408 58.7592352,9.06065408 C59.6710013,9.06065408 60.480339,9.24676608 61.1862846,9.61771008 C61.8922303,9.98926848 62.4363185,10.5313229 62.8192086,11.2441293 C63.2602598,10.5609677 63.8745268,10.0262861 64.6614012,9.64003328 C65.4482755,9.25408768 66.3344853,9.06065408 67.3202332,9.06065408 Z M83.162765,15.7222093 L79.8969678,15.7222093 C78.1021357,15.7222093 77.2052775,16.3312333 77.2052775,17.5490765 C77.2052775,18.1435085 77.4332063,18.6111181 77.8890641,18.9526733 C78.3450232,19.2945869 78.9775955,19.4650829 79.7866289,19.4650829 C80.5956623,19.4650829 81.2943568,19.2834253 81.8830167,18.9191885 C82.4710681,18.5555661 82.8978706,18.0391117 83.162765,17.3710029 L83.162765,15.7222093 Z M132.82953,15.7222093 L129.563733,15.7222093 C127.768951,15.7222093 126.872042,16.3312333 126.872042,17.5490765 C126.872042,18.1435085 127.099971,18.6111181 127.555829,18.9526733 C128.011788,19.2945869 128.64436,19.4650829 129.453394,19.4650829 C130.262427,19.4650829 130.961122,19.2834253 131.549781,18.9191885 C132.137833,18.5555661 132.564635,18.0391117 132.82953,17.3710029 L132.82953,15.7222093 Z M29.0468774,0.380566571 L29.1647889,0.48881152 L30.8239285,2.16407552 C31.4314604,2.77751176 31.4671976,3.74960452 30.93114,4.40523564 L30.8239285,4.52429312 L16.5268812,18.9602867 C15.919397,19.5736748 14.9566185,19.6097564 14.3072927,19.0685317 L14.1893807,18.9602867 L12.5302411,17.2849715 C11.9227569,16.6715835 11.8870225,15.6994935 12.423038,15.0439053 L12.5302411,14.9248563 L26.8272884,0.48881152 C27.4348203,-0.124576527 28.3975567,-0.160658177 29.0468774,0.380566571 Z M167.271838,10.9322445 C166.521625,10.9322445 165.848538,11.1030477 165.25288,11.4446029 C164.656969,11.7864653 164.186203,12.2727117 163.840685,12.9038029 C163.49476,13.5355597 163.322203,14.2594765 163.322203,15.0760653 C163.322203,15.8932685 163.49476,16.6172877 163.840685,17.2483789 C164.186203,17.8797773 164.656969,18.3698637 165.25288,18.7187405 C165.848538,19.0679245 166.521625,19.2422605 167.271838,19.2422605 C168.022051,19.2422605 168.694834,19.0679245 169.290745,18.7187405 C169.886403,18.3698637 170.353315,17.8797773 170.691937,17.2483789 C171.029901,16.6172877 171.199364,15.8932685 171.199364,15.0760653 C171.199364,14.2594765 171.029901,13.5355597 170.691937,12.9038029 C170.353315,12.2727117 169.886403,11.7864653 169.290745,11.4446029 C168.694834,11.1030477 168.022051,10.9322445 167.271838,10.9322445 Z M94.3709274,10.9322291 C93.1793082,10.9322291 92.2084682,11.2853555 91.4582551,11.9904819 C90.7083463,12.6959667 90.3330623,13.6207411 90.3330623,14.7641907 C90.3330623,15.5070515 90.5056697,16.1716275 90.8515435,16.7580211 C91.197113,17.3450803 91.6750791,17.8019379 92.285898,18.1284915 C92.8961085,18.4554035 93.591,18.6184755 94.3709274,18.6184755 C95.1356934,18.6184755 95.8232831,18.4554035 96.434102,18.1284915 C97.0442617,17.8019379 97.5222785,17.3450803 97.8681523,16.7580211 C98.2137219,16.1716275 98.3866842,15.5070515 98.3866842,14.7641907 C98.3866842,13.6207411 98.0117044,12.6959667 97.2614407,11.9904819 C96.5112277,11.2853555 95.5476387,10.9322291 94.3709274,10.9322291 Z M14.8756392,2.01920711 L14.9770562,2.11044864 L16.9769989,4.12972544 C17.3986474,4.55551927 17.4287651,5.22699081 17.0673522,5.68784046 L16.9769989,5.79024384 L7.11465124,15.748439 C6.77394392,16.0924575 6.31945216,16.2931868 5.84238156,16.315099 L5.66259985,16.3148646 L0.323131635,16.0554854 C0.0538637237,16.042391 -0.0841285276,15.7392838 0.0549173067,15.5271256 L0.0998171242,15.4718054 L13.332571,2.11044864 C13.7542666,1.68465481 14.4192315,1.65424097 14.8756392,2.01920711 Z" id="Combined-Shape"></path>
            </g>
        </g>
    </g>
</svg>