<?xml version="1.0" encoding="UTF-8"?>
<svg width="56px" height="17px" viewBox="0 0 56 17" version="1.1" xmlns="http://www.w3.org/2000/svg" xmlns:xlink="http://www.w3.org/1999/xlink">
    <!-- Generator: sketchtool 61.2 (101010) - https://sketch.com -->
    <title>033E7B8B-044D-40A5-B2BF-CAF484C8E40D</title>
    <desc>Created with sketchtool.</desc>
    <defs>
        <polygon id="path-1" points="0.0468658511 0.0498533724 4.39919054 0.0498533724 4.39919054 4.91868545 0.0468658511 4.91868545"></polygon>
        <polygon id="path-3" points="0 0.0467511819 9.72139673 0.0467511819 9.72139673 11.4662757 0 11.4662757"></polygon>
        <polygon id="path-5" points="0.0128504755 0.00238757591 8.30522973 0.00238757591 8.30522973 11.4662757 0.0128504755 11.4662757"></polygon>
        <polygon id="path-7" points="0.0468658511 0.0498533724 4.39919054 0.0498533724 4.39919054 4.91868545 0.0468658511 4.91868545"></polygon>
    </defs>
    <g id="Mobile-360-WS" stroke="none" stroke-width="1" fill="none" fill-rule="evenodd">
        <g id="Mobile-360-Website" transform="translate(-173.000000, -631.000000)">
            <g id="Group-21" transform="translate(173.285714, 630.903226)">
                <g id="Group-3" transform="translate(50.854253, 0.000000)">
                    <mask id="mask-2" fill="white">
                        <use xlink:href="#path-1"></use>
                    </mask>
                    <g id="Clip-2"></g>
                    <path d="M2.23842479,0.0498172468 C1.94210097,1.37974627 1.1925535,2.15399082 0.0468658511,2.48547962 C1.21927749,2.8012899 1.94280255,3.59287475 2.2429532,4.91868545 C2.50687657,3.5613732 3.25942172,2.82534957 4.39924157,2.47471418 C3.26522574,2.14416465 2.52154607,1.39463003 2.23842479,0.0498172468" id="Fill-1" fill="#FEFEFE" mask="url(#mask-2)"></path>
                </g>
                <g id="Group-6" transform="translate(0.000000, 4.985337)">
                    <mask id="mask-4" fill="white">
                        <use xlink:href="#path-3"></use>
                    </mask>
                    <g id="Clip-5"></g>
                    <path d="M0.141109533,11.4662757 C0.0257508197,11.316807 -0.000282370583,11.1495622 -9.04161042e-06,10.9625737 C0.00453859058,7.48238942 0.00309230223,4.00220514 0.00350552748,0.522020858 C0.00357439835,0.0770072359 0.0252687236,0.0546174669 0.461565709,0.0528534245 C0.9432486,0.0509536865 1.42548246,0.0654731125 1.90654551,0.0474256017 C2.18423288,0.0371127384 2.34676814,0.146483368 2.48747133,0.373909143 C3.18506441,1.50201426 3.89457215,2.62292752 4.60394215,3.74397647 C4.67439706,3.85531469 4.71792345,3.99379201 4.88452209,4.06659269 C5.40160462,3.25750785 5.91992681,2.4472696 6.43742256,1.63648857 C6.70581235,1.215968 6.98219117,0.799857537 7.23653131,0.371195232 C7.37337773,0.140648458 7.54286895,0.0368413472 7.81972986,0.0474934495 C8.28929148,0.0656088081 8.7600239,0.0515643166 9.2303431,0.0526498811 C9.70527665,0.0538711413 9.71719131,0.064998178 9.71726018,0.524870465 C9.71781115,3.24800916 9.71753566,5.97121571 9.71753566,8.6943544 C9.71753566,9.46266272 9.71237035,10.2311067 9.72139673,10.9992794 C9.72338969,11.1772441 9.68186055,11.3277983 9.57641924,11.4662757 L7.5791639,11.4662757 C7.39589851,11.3271877 7.37874966,11.1354499 7.37916289,10.9244432 C7.38343288,8.76532319 7.38205546,6.60627097 7.38095353,4.44715091 C7.38095353,4.32923146 7.36993419,4.21124417 7.36387355,4.09033941 C7.21518133,4.10553732 7.20064958,4.20934443 7.15622787,4.27997397 C6.76380163,4.90410575 6.37943328,5.53325826 5.98259931,6.15474397 C5.37722433,7.10284891 5.70566952,6.90330858 4.52997484,6.93336515 C4.29560725,6.93933575 4.149601,6.85147287 4.03031665,6.65261101 C3.56950163,5.88443839 3.09628986,5.12345763 2.62404228,4.36206979 C2.56240284,4.26260494 2.52955144,4.13342276 2.3582007,4.07487012 C2.35165797,4.20866595 2.34084524,4.3265854 2.34084524,4.44450485 C2.33981218,6.59229433 2.33815928,8.74008381 2.34318685,10.8879411 C2.34360008,11.0958268 2.31983963,11.288718 2.20723575,11.4662757 L0.141109533,11.4662757 Z" id="Fill-4" fill="#FEFEFE" mask="url(#mask-4)"></path>
                </g>
                <path d="M42.1891604,16.4516129 C42.0908057,16.3121333 42.0542371,16.1604628 42.0544951,15.9820269 C42.0589452,12.4635029 42.0610091,8.94497899 42.0525555,5.42652316 C42.0517863,5.10281868 42.1464003,4.9745083 42.4584265,4.98962768 C42.8659695,5.00937821 43.2762859,5.01530337 43.6831195,4.98778883 C44.0036591,4.96606325 44.1938544,5.08810794 44.3573489,5.37891755 C45.5363152,7.47526669 46.7286963,9.56330698 47.9183687,11.6530499 C47.9822831,11.7653555 48.0238178,11.8981609 48.1760902,11.9976627 C48.1823462,11.8546416 48.1918269,11.7373643 48.1918914,11.620155 C48.1928589,9.57713236 48.1922139,7.53410967 48.1929234,5.49108698 C48.1930523,5.02013885 48.2176894,4.99548473 48.6705079,4.99459936 C49.1111368,4.99385021 49.5521528,5.00495137 49.9923947,4.99085357 C50.2615318,4.9822042 50.3624663,5.11671216 50.3634337,5.37680629 C50.3636917,5.44491159 50.3642077,5.51301688 50.3642077,5.58112218 C50.3642077,8.99748818 50.3636917,12.4138542 50.36527,15.8302202 C50.3653686,16.0589178 50.3700122,16.2840739 50.1865243,16.4516129 L48.3806679,16.4516129 C48.2754123,16.297763 48.1588056,16.1512004 48.0667714,15.9889736 C46.8639421,13.8681747 45.6649179,11.7451283 44.4638944,9.62323964 C44.4084289,9.52530423 44.3734726,9.39903701 44.1977241,9.3654611 C44.1977241,9.51638243 44.1975951,9.63781418 44.1977241,9.75931403 C44.2004329,11.813506 44.2023033,13.8678342 44.2071404,15.9220261 C44.2076563,16.1168754 44.2121065,16.3070935 44.0595116,16.4516129 L42.1891604,16.4516129 Z" id="Fill-7" fill="#FEFEFE"></path>
                <g id="Group-11" transform="translate(19.559328, 4.985337)">
                    <mask id="mask-6" fill="white">
                        <use xlink:href="#path-5"></use>
                    </mask>
                    <g id="Clip-10"></g>
                    <path d="M3.62398821,2.02390621 L3.62398821,2.02153154 C3.26667556,2.02153154 2.90929588,2.02621304 2.55205027,2.01956395 C2.37788549,2.01630726 2.28383115,2.05986554 2.28574571,2.26422306 C2.29355166,3.07778585 2.29093718,3.89155219 2.28771936,4.70525067 C2.28711601,4.87826252 2.36032153,4.94882422 2.52945846,4.94760296 C3.22176009,4.94251438 3.91560359,4.97128184 4.60589408,4.93369416 C5.46009253,4.88708274 6.03507763,4.26525779 6.01711144,3.47510248 C5.99780449,2.6232057 5.41055144,2.04839926 4.52839813,2.02519532 C4.22712927,2.01718928 3.92545818,2.02390621 3.62398821,2.02390621 L3.62398821,2.02390621 Z M0.204378811,11.4662824 C0.0549510644,11.3425281 0.0126500739,11.1827466 0.012850475,10.9896518 C0.016605317,7.48524581 0.0149964045,3.98097557 0.016471241,0.476569626 C0.016605317,0.0926190113 0.0930956977,0.0124907772 0.462810377,0.0118122994 C1.91478685,0.0093697791 3.36723259,-0.0114594909 4.81867276,0.0179864478 C6.22452707,0.0464146697 7.3720839,0.576984348 7.96798486,1.95537995 C8.51045651,3.21036043 8.38114017,4.99876019 7.14415463,5.97203667 C6.92313028,6.14599839 6.69171503,6.30577992 6.42181997,6.38957193 C6.16090799,6.47051434 6.14039436,6.59759324 6.25710755,6.84001338 C6.92661626,8.23068943 7.57742135,9.63052493 8.2422374,11.0235756 C8.32610196,11.1991657 8.34467149,11.3382537 8.18190318,11.4662824 L6.17076258,11.4662824 C5.96354806,11.31315 5.8796835,11.079143 5.780065,10.8556524 C5.20776143,9.57142951 4.63130149,8.28910637 4.06764582,7.00101617 C3.97245183,6.78363187 3.85211859,6.69488697 3.61386546,6.71103474 C3.29194889,6.73281388 2.96647931,6.73267818 2.6444957,6.71150967 C2.36588569,6.69312292 2.28041221,6.79258778 2.28316077,7.07429178 C2.29576392,8.37188067 2.28617748,9.6696731 2.29140645,10.9673977 C2.29214386,11.1532328 2.27270284,11.3223094 2.14848139,11.4662824 L0.204378811,11.4662824 Z" id="Fill-9" fill="#FEFEFE" mask="url(#mask-6)"></path>
                </g>
                <path d="M11.3827357,16.4516129 C11.2799121,16.3241487 11.2490917,16.1809474 11.2492923,16.0140381 C11.2534373,12.4733135 11.255911,8.93252084 11.2466137,5.39179625 C11.2458158,5.0716711 11.3545227,4.98412889 11.6548372,4.98562767 C13.6705945,4.9958466 15.6864187,4.99598285 17.7021091,4.98533724 C17.9916599,4.98392451 18.102573,5.0677879 18.0856586,5.37163089 C18.0636631,5.76758054 18.0629946,6.16673213 18.0857254,6.56261365 C18.1043112,6.88737139 17.9671908,6.97409608 17.6738293,6.97191605 C16.404312,6.96258275 15.1345273,6.97654863 13.8651437,6.96135648 C13.581142,6.95795017 13.5080022,7.04883056 13.5155568,7.32698996 C13.5340758,8.00736662 13.5295296,8.68883331 13.5172282,9.36948248 C13.51315,9.59525281 13.5877607,9.66201651 13.804439,9.65881458 C14.5504116,9.64791438 15.2968522,9.66399217 16.042758,9.65023067 C16.3544379,9.64450807 16.4942325,9.74553927 16.4721034,10.0825597 C16.4491051,10.4327286 16.4672229,10.7858268 16.4670224,11.1376307 C16.4667549,11.6439448 16.4489046,11.6622026 15.9337837,11.6628158 C15.254399,11.6637014 14.574747,11.6756235 13.8958972,11.657025 C13.6163748,11.649463 13.5019852,11.7083922 13.5138186,12.0259286 C13.5391568,12.7058965 13.5340758,13.3877719 13.5155568,14.0682167 C13.508069,14.3467849 13.5820111,14.437529 13.8657454,14.4341227 C15.1128661,14.4189306 16.3603211,14.4269695 17.6075756,14.4278551 C18.0660699,14.4281957 18.0937481,14.443456 18.0764325,14.9018774 C18.0569107,15.4185467 18.1620074,15.942165 18.0014208,16.4516129 L11.3827357,16.4516129 Z" id="Fill-12" fill="#FEFEFE"></path>
                <path d="M29.482716,16.4516129 C29.3752264,16.3413795 29.3404012,16.2122062 29.3405351,16.0544185 C29.3444864,12.490501 29.3458928,8.92665174 29.3389922,5.36280245 C29.338459,5.08354001 29.423513,4.97644058 29.7033207,4.98591057 C30.1936204,5.00239789 30.6849247,4.98965769 31.1758272,4.9906115 C31.5898462,4.99149718 31.6138221,5.01329859 31.614023,5.43134063 C31.6152285,7.72403145 31.6146257,10.0167223 31.6146257,12.3094131 C31.6146257,12.8655534 31.6144918,13.4216938 31.6146927,13.9778341 C31.6148266,14.4272157 31.6150275,14.427352 32.0740515,14.4274201 C33.2790731,14.4274882 34.4840277,14.4264663 35.6889823,14.4279651 C36.1520245,14.4285783 36.1806884,14.4599178 36.1812242,14.928035 C36.181559,15.3026105 36.1742591,15.6773222 36.1844388,16.0516252 C36.1888589,16.2096854 36.1474704,16.3380412 36.0459414,16.4516129 L29.482716,16.4516129 Z" id="Fill-14" fill="#FEFEFE"></path>
                <path d="M38.2590472,16.4516129 C38.1678429,16.3257227 38.1429325,16.1821888 38.1430473,16.0153571 C38.1464911,12.4752406 38.1485574,8.93519221 38.1406899,5.39507572 C38.1400052,5.07857907 38.2266178,4.97455617 38.4882347,4.9862051 C38.927439,5.00575623 39.3677338,4.99880775 39.8073398,4.98852127 C40.0148885,4.98361645 40.0964501,5.07394675 40.0961631,5.3262721 C40.0921453,8.91168999 40.0924897,12.497176 40.0966227,16.082662 C40.0967945,16.2324632 40.0447351,16.3398922 39.9809667,16.4516129 L38.2590472,16.4516129 Z" id="Fill-16" fill="#FEFEFE"></path>
                <g id="Group-20" transform="translate(50.854253, 0.000000)">
                    <mask id="mask-8" fill="white">
                        <use xlink:href="#path-7"></use>
                    </mask>
                    <g id="Clip-19"></g>
                    <path d="M2.23842479,0.0498172468 C2.52154607,1.39463003 3.26522574,2.14416465 4.39924157,2.47471418 C3.25942172,2.82534957 2.50687657,3.5613732 2.2429532,4.91868545 C1.94280255,3.59287475 1.21927749,2.8012899 0.0468658511,2.48547962 C1.1925535,2.15399082 1.94210097,1.37974627 2.23842479,0.0498172468" id="Fill-18" fill="#FEFEFE" mask="url(#mask-8)"></path>
                </g>
            </g>
        </g>
    </g>
</svg>