<?xml version="1.0" encoding="UTF-8"?>
<svg width="40px" height="30px" viewBox="0 0 40 30" version="1.1" xmlns="http://www.w3.org/2000/svg" xmlns:xlink="http://www.w3.org/1999/xlink">
    <!-- Generator: sketchtool 61.2 (101010) - https://sketch.com -->
    <title>34801EDE-01E7-4E6C-B5B8-728FCE58A379</title>
    <desc>Created with sketchtool.</desc>
    <defs>
        <polygon id="path-1" points="0.0163879748 0.000888418826 3.34993481 0.000888418826 3.34993481 3.44077675 0.0163879748 3.44077675"></polygon>
        <polygon id="path-3" points="0 0.000269438139 13.0417952 0.000269438139 13.0417952 15.6977912 0 15.6977912"></polygon>
        <polygon id="path-5" points="0.0163879748 0.000888418826 3.34993481 0.000888418826 3.34993481 3.44077675 0.0163879748 3.44077675"></polygon>
    </defs>
    <g id="Mobile-360-WS" stroke="none" stroke-width="1" fill="none" fill-rule="evenodd">
        <g id="Mobile-360-Website" transform="translate(-24.000000, -628.000000)">
            <g id="Group-18" transform="translate(24.000000, 628.000000)">
                <g id="Group-3" transform="translate(36.139987, 0.000000)">
                    <mask id="mask-2" fill="white">
                        <use xlink:href="#path-1"></use>
                    </mask>
                    <g id="Clip-2"></g>
                    <path d="M1.68537217,0.00131597039 C0.789711735,-0.0210610788 -0.0283976757,0.816828926 0.0182945011,1.74555976 C0.0747882653,2.86940957 0.832041667,3.47025833 1.6973818,3.43966341 C2.64242715,3.40629217 3.35589654,2.72009968 3.34991865,1.66476917 C3.34469473,0.736427023 2.60058192,-0.00456980434 1.68537217,0.00131597039" id="Fill-1" fill="#DF6F6E" mask="url(#mask-2)"></path>
                </g>
                <path d="M32.3272057,28.8185618 C31.3935218,29.3340439 30.4184431,29.742793 29.3600572,29.8711322 C26.0550808,30.2719118 23.1783687,29.388591 20.8857838,26.8196227 C20.4910954,26.3772834 20.2002966,25.8567244 19.9257107,25.272173 C18.6981234,27.742437 16.6778822,29.0754174 14.175736,29.7037127 C12.238112,30.1902683 10.3171034,30.0941024 8.45887705,29.292189 C6.66992957,28.5202057 5.33908511,27.2163289 4.3728028,25.5083667 C3.80695819,24.5079821 3.34770531,23.4623187 3.18080357,22.2281607 C3.5069605,22.5062093 3.76763308,22.7480703 4.04762325,22.9634251 C4.77186067,23.520644 5.56037509,23.9337026 6.49428892,23.8723666 C7.30298333,23.8191772 7.99801438,23.4255997 8.64641873,22.9607096 C9.49645049,22.3514821 10.2615078,21.6293822 11.0806659,20.978654 C11.8311201,20.382591 12.6025591,19.8054188 13.4982402,19.465621 C14.9696547,18.9074576 16.3412041,19.1971949 17.6188102,20.082818 C18.2590505,20.5266332 18.8726717,21.0067541 19.4708273,21.5078319 C19.8621236,21.8356458 19.9342197,21.8013473 20.3392568,21.4829787 C21.2325232,20.7808322 22.0742185,19.9922604 23.1326618,19.5422467 C24.4757523,18.971214 25.7790577,19.0919379 27.0431529,19.807426 C28.2261833,20.4771039 29.2445541,21.3732351 30.2691917,22.2621051 C30.8922992,22.8026764 31.5344943,23.3185717 32.3067957,23.6225951 C32.9755525,23.8859443 33.6564978,23.9829366 34.3517013,23.7222439 C35.0191933,23.5483898 35.5631907,23.1505619 36.0836159,22.7114694 C36.2594291,22.5631768 36.4292629,22.407446 36.6246811,22.2757419 C36.0639534,25.0632528 34.7060298,27.2939582 32.3272057,28.8185618" id="Fill-4" fill="#FEFEFE"></path>
                <g id="Group-8" transform="translate(0.272640, 0.491803)">
                    <mask id="mask-4" fill="white">
                        <use xlink:href="#path-3"></use>
                    </mask>
                    <g id="Clip-7"></g>
                    <path d="M9.69747436,6.45493371 C8.90462218,7.10342979 8.0107019,7.56261725 7.04437967,7.88415681 C6.90773377,7.9296593 6.80405963,7.97938133 6.81691976,8.1539216 C6.91917758,9.53855453 7.14448469,10.8902865 7.89717022,12.091712 C8.38256911,12.8665659 9.02755818,13.4439002 9.9512777,13.6217477 C10.7472458,13.7749622 11.4845218,13.5709993 12.1859934,13.1980841 C12.3024144,13.1361597 12.4139066,13.0782837 12.5550847,13.0739501 C12.7580707,13.0677919 12.8935836,13.1388396 12.9883066,13.3217619 C13.0943601,13.5266372 13.0326089,13.7118403 12.8916574,13.8396807 C11.9598365,14.684556 10.9257012,15.3905289 9.67996873,15.6219758 C8.12995547,15.9098161 6.84167691,15.3727384 5.88124655,14.1012915 C5.09456951,13.059809 4.73697873,11.8486329 4.53858157,10.5769579 C4.50900895,10.3872502 4.51699695,10.1872217 4.43553061,10.0036151 C4.30069759,10.0490036 4.31842983,10.1631589 4.29724178,10.2464091 C4.1219022,10.9354469 3.94752571,11.6248838 3.78464968,12.3170577 C3.66522615,12.8243136 3.42354645,13.0283906 2.90925477,13.0007356 C2.38652187,12.9726814 1.94230937,12.764556 1.59117698,12.3692887 C1.27720865,12.0157035 1.26542493,11.589474 1.33856334,11.159082 C1.42422197,10.6549052 1.53956653,10.1558033 1.64205095,9.65453457 C1.74493195,9.27688667 1.8478696,8.89929579 1.9508639,8.52170492 C1.96389398,8.48133428 1.97703737,8.44096365 1.99006745,8.40065004 C2.22002008,7.69638774 2.44124821,6.98916037 2.68173821,6.28860442 C3.07230076,5.15098503 3.53911761,4.04409979 4.03584701,2.94964505 C4.18778909,2.61493371 4.44272548,2.44381468 4.80354545,2.40783464 C5.32259594,2.35600285 5.83949364,2.34437063 6.352369,2.4573856 C6.77029473,2.54947398 6.91481533,2.82351532 6.73924914,3.21861155 C6.2460322,4.32829081 5.81824894,5.46362937 5.41205029,6.60757805 C5.38349742,6.68814825 5.28747138,6.78873272 5.38298754,6.86673699 C5.47068566,6.93841197 5.55787391,6.84199002 5.63622436,6.80053599 C6.64826517,6.26419957 7.46066247,5.52464148 7.95807169,4.4692459 C8.20620978,3.94266001 8.30852425,3.38591019 8.24762278,2.80709337 C8.15482593,1.92515467 7.66925709,1.44669423 6.79533514,1.32985887 C5.48524536,1.1547484 4.43190485,1.67540413 3.52931672,2.5657819 C2.82625881,3.25938133 2.31434654,4.07876835 2.09283514,5.05906771 C2.04938265,5.25128439 2.02009329,5.44777762 1.99935847,5.6438717 C1.96695322,5.95087099 1.75229678,6.16218959 1.44943235,6.16846187 C0.654937252,6.18476978 0.0744187649,5.60447042 0.00875848131,4.81000143 C-0.0670992579,3.8907712 0.358757819,3.1754469 0.896560297,2.52945973 C2.4051039,0.71762794 4.3747991,-0.0735908767 6.70214173,0.0056678546 C7.89133501,0.046209551 9.0225161,0.30821953 10.0083268,1.0206928 C10.6247063,1.46608125 11.1065361,2.03075695 11.2163287,2.81022951 C11.378015,3.95885388 11.0368535,4.9726814 10.2831482,5.84458446 C10.0989142,6.05767071 9.8932655,6.25194013 9.69747436,6.45493371" id="Fill-6" fill="#FEFEFE" mask="url(#mask-4)"></path>
                </g>
                <g id="Group-11" transform="translate(36.139987, 0.000000)">
                    <mask id="mask-6" fill="white">
                        <use xlink:href="#path-5"></use>
                    </mask>
                    <g id="Clip-10"></g>
                    <path d="M1.68537217,0.00131597039 C2.60058192,-0.00456980434 3.34469473,0.736427023 3.34991865,1.66476917 C3.35589654,2.72009968 2.64242715,3.40629217 1.6973818,3.43966341 C0.832041667,3.47025833 0.0747882653,2.86940957 0.0182945011,1.74555976 C-0.0283976757,0.816828926 0.789711735,-0.0210610788 1.68537217,0.00131597039" id="Fill-9" fill="#FEFEFE" mask="url(#mask-6)"></path>
                </g>
                <path d="M2.2620239,8.79121863 C2.240964,8.83200709 2.21972097,8.87285325 2.19866107,8.9136994 C2.12623333,8.85364171 2.16771218,8.8169494 2.2620239,8.79121863" id="Fill-12" fill="#E38270"></path>
                <path d="M31.1892769,7.91284863 C30.8627312,8.94190158 30.3909205,9.90189753 29.7944006,10.7994655 C29.6136353,11.0714279 29.411856,11.3271924 29.1559102,11.5322305 C28.9248718,11.717324 28.8315976,11.6804321 28.7760568,11.3942895 C28.7311661,11.1629658 28.7652922,10.933775 28.8090377,10.7082734 C29.1387326,9.00876812 29.7580414,7.43694335 30.8485311,6.07741984 C30.9491344,5.95192979 31.071954,5.84050478 31.1989536,5.74135784 C31.4167652,5.57148225 31.5132459,5.61465729 31.5512656,5.88840658 C31.5656948,5.99233793 31.5641488,6.09851738 31.5681569,6.17195529 C31.5247549,6.7927765 31.3660341,7.35578121 31.1892769,7.91284863 M23.6867425,6.08329948 C23.6688205,6.77185188 23.4732825,7.42420412 23.2541539,8.06837098 C22.8756174,9.18123767 22.3677911,10.2283331 21.6415805,11.1575473 C21.5363965,11.2920874 21.4082518,11.4099685 21.2817676,11.5256592 C21.2061291,11.5947738 21.113771,11.6838907 21.0042926,11.627573 C20.9011699,11.5745409 20.9052925,11.4501461 20.898536,11.3454077 C20.893669,11.26903 20.8976198,11.1920182 20.8976198,11.1153523 C20.9242451,10.4770074 21.0960208,9.86921363 21.2941927,9.26856767 C21.641237,8.21674552 22.0997637,7.21968475 22.7649366,6.32932222 C22.8903902,6.16146416 23.0326777,6.00415486 23.1824662,5.85779785 C23.2870203,5.75559581 23.4048585,5.58814124 23.5630639,5.6646919 C23.710562,5.73599699 23.6905215,5.93406029 23.6867425,6.08329948 M14.2086153,9.66498248 C13.9317128,10.2764078 13.6358005,10.8776878 13.1597527,11.3652948 C13.1064449,11.4198832 13.0530799,11.4756245 12.9927867,11.5218547 C12.7988519,11.6706904 12.7188616,11.6415804 12.6589119,11.4046077 C12.5646643,11.0321726 12.611101,10.6573165 12.6727112,10.2904152 C12.9170908,8.83595271 13.4492521,7.49130123 14.2459479,6.25415501 C14.3854298,6.03753049 14.5473571,5.83583565 14.757038,5.67754642 C14.9314476,5.54583087 15.0261533,5.59309859 15.084328,5.79375585 C15.1335704,5.96357379 15.1220042,6.13517869 15.1312228,6.37290076 C15.060394,7.49291525 14.6930802,8.59569432 14.2086153,9.66498248 M39.2543768,8.76153486 C38.9268005,8.63045339 38.7365875,8.7101168 38.4703923,9.11189246 C38.0888211,9.68752111 37.6711771,10.2303506 37.1229834,10.6573165 C37.0342326,10.7264888 36.9289914,10.8116283 36.8109814,10.7565787 C36.686215,10.6983587 36.7118096,10.5622046 36.709462,10.4488197 C36.6986401,9.92022819 36.8606246,9.42564639 37.0184865,8.93302447 C37.3827083,7.79635099 37.8675167,6.70775223 38.3468283,5.61736653 C38.5324606,5.19518505 38.4326017,4.87030591 38.0541224,4.59892 C37.8187897,4.430082 37.552022,4.36315782 37.2808453,4.34903514 C36.7821804,4.32309554 36.3132326,4.41451823 36.035872,4.90206752 C35.8391888,5.2476407 35.6241256,5.58854475 35.4776582,5.9559072 C35.0487341,7.03119029 34.6232456,8.10820268 34.3083235,9.22631494 C34.0141289,10.270874 33.2754359,10.935389 32.3655399,11.4605219 C32.3610737,11.4201714 32.3520268,11.3992468 32.3585543,11.3868534 C32.3808852,11.344716 32.4067088,11.3040196 32.4347082,11.2654561 C33.1421952,10.2922021 33.6097115,9.20452567 33.9281265,8.0497521 C34.1726779,7.16284819 34.3055178,6.26349327 34.0774569,5.34938159 C33.8348523,4.37658877 33.1594301,3.89359332 32.1702308,3.96559014 C31.5265299,4.01245436 31.0176729,4.34442366 30.5489542,4.74850506 C30.3967036,4.87987474 30.322382,4.89532322 30.1645773,4.74204898 C29.4341869,4.03262961 28.320164,4.26037934 27.9056119,5.19132293 C27.3085767,6.53222758 26.8044149,7.90927473 26.3470333,9.30373025 C26.0310805,10.2669542 25.4089088,10.9566019 24.5252944,11.4216702 C24.5110942,11.4323342 24.4899086,11.4551611 24.4837819,11.4516448 C24.4470792,11.430432 24.4670624,11.4055876 24.4857287,11.3827031 C25.1947044,10.3909456 25.6984081,9.30038692 26.0297635,8.1272827 C26.274773,7.25986231 26.4013717,6.38125907 26.2306839,5.48340288 C26.0080625,4.31197033 25.1280554,3.74833154 23.9753257,4.01516361 C23.4546735,4.13575395 23.0361705,4.42921734 22.6446363,4.77035197 C22.5109376,4.88690726 22.4393071,4.89745603 22.3038905,4.75484585 C21.7656599,4.18792137 20.4428722,4.08076198 20.0102836,5.19161115 C19.5339495,6.41457706 19.0257796,7.62491902 18.6141477,8.87221051 C18.381048,9.57845948 17.9788637,10.1557022 17.4034723,10.615352 C17.2996052,10.698301 17.1810227,10.8156057 17.0485264,10.755714 C16.8937564,10.6857348 16.9341237,10.5066362 16.9383036,10.3686375 C16.9541642,9.84431161 17.1058994,9.34765464 17.2729227,8.8575114 C17.6505431,7.74960205 18.1176013,6.67777758 18.5834571,5.6055496 C18.7709217,5.17385693 18.6795942,4.87186229 18.3058675,4.60554901 C17.7696409,4.22360274 16.657164,4.16278878 16.2245181,4.98905166 C16.2009849,5.033956 16.188846,5.09978495 16.1139518,5.09200307 C15.7322661,4.12751092 15.1408995,3.79121835 14.1416801,3.98858992 C13.1585503,4.1827911 12.3928313,4.74158783 11.770316,5.50323227 C11.3133353,6.06249015 10.9689249,6.69530122 10.7111468,7.37347778 C10.6447841,7.56272161 10.5778488,7.75179251 10.5120587,7.94126691 C10.1121075,9.09321594 9.84070188,10.2622851 10.0259906,11.496088 C10.2051527,12.6891369 11.013014,13.4023607 12.075447,13.2904746 C12.6921791,13.2255103 13.2205613,12.9545279 13.6760533,12.5415694 C14.0140507,12.2350785 14.0979918,12.2426875 14.2671909,12.6623326 C14.4056421,13.005773 14.6543161,13.245455 15.005483,13.2909357 C15.3966736,13.3416044 15.7938191,13.3033867 16.1695499,13.1278044 C16.5807238,12.9356784 16.9210688,12.6469995 17.2728655,12.3715785 C17.3231385,12.3322079 17.3692889,12.2487401 17.4390871,12.294509 C17.5049345,12.3375688 17.4560357,12.4079516 17.4377129,12.4728582 C17.2810534,13.0254871 17.1268561,13.578923 16.9802169,14.1343188 C16.8532173,14.6153543 16.7214081,15.096044 16.6199459,15.5829016 C16.4980424,16.1676379 16.9689369,16.8904306 17.6031902,17.1106867 C18.2950456,17.3510603 18.8961462,17.2016482 18.9605621,16.3042532 C18.9665742,16.2200936 18.9964632,16.1376633 19.0159884,16.0545412 C19.2694721,14.9772406 19.5845661,13.9168872 19.887464,12.8531905 C19.9071609,12.7841335 19.9081916,12.689598 20.0006069,12.6697687 C20.0661107,12.6557036 20.0988054,12.7166329 20.1306412,12.7634971 C20.3924274,13.1488443 20.7794381,13.2694923 21.2170082,13.2995823 C22.6665091,13.3994209 23.9577473,12.9442097 25.1637848,12.1770891 C25.2347282,12.1318965 25.310195,12.0110756 25.4073628,12.0958693 C25.4809973,12.1601995 25.4103402,12.2575019 25.3871505,12.337857 C25.0995979,13.3321509 24.8087816,14.3258683 24.5854159,15.3371671 C24.3873012,16.2338704 24.8325439,16.9553949 25.720739,17.1472903 C26.3142242,17.2756049 26.715435,17.112416 26.8246271,16.4636953 C26.9851802,15.5103283 27.2619682,14.5799035 27.5540442,13.65703 C27.6288239,13.3798798 27.7036609,13.1027295 27.7783833,12.8255792 C27.8225297,12.6619868 27.8886061,12.5924686 28.0121701,12.7703567 C28.2770483,13.1517265 28.6632001,13.2734697 29.1014573,13.3021762 C30.7242227,13.4085863 32.1313523,12.8382032 33.426026,11.9140615 C33.8505984,11.6110869 33.8477354,11.6069366 33.9024746,12.1212901 C33.9941456,12.9828885 34.5581426,13.4127366 35.4108947,13.2789459 C35.7968175,13.2183625 36.1416286,13.0620908 36.4588412,12.8423535 C37.7689747,11.9346403 38.6421681,10.6448655 39.4739634,9.32217619 C39.6109832,9.10434115 39.4970386,8.85854898 39.2543768,8.76153486" id="Fill-14" fill="#FEFEFE"></path>
                <path d="M24.5579423,11.3177 C24.5350446,11.3330869 24.5008828,11.3660232 24.4909112,11.3609496 C24.4317281,11.3303422 24.463951,11.2944949 24.4941427,11.2614754 C24.5155631,11.2798565 24.5368912,11.2986535 24.5579423,11.3177" id="Fill-16" fill="#DF6F6E"></path>
            </g>
        </g>
    </g>
</svg>